<?xml version="1.0" encoding="UTF-8"?>
<svg width="24" height="24" viewBox="0 0 24 24" fill="none" xmlns="http://www.w3.org/2000/svg">
  <path d="M12 15a3 3 0 100-6 3 3 0 000 6z" fill="#1D4ED8"/>
  <path d="M2 12c0 1.64.425 2.191 1.275 3.296C4.972 17.5 8.037 20 12 20c3.964 0 7.028-2.5 8.725-4.704C21.575 14.192 22 13.639 22 12c0-1.64-.425-2.191-1.275-3.296C19.028 6.5 15.963 4 12 4 8.037 4 4.972 6.5 3.275 8.704 2.425 9.81 2 10.361 2 12z" stroke="#1D4ED8" stroke-width="2" stroke-linecap="round" stroke-linejoin="round"/>
</svg> 